<svg version="1.1" xmlns="http://www.w3.org/2000/svg" viewBox="0 0 1683.9999999999995 1726.443363490851" width="1683.9999999999995" height="1726.443363490851" filter="invert(93%) hue-rotate(180deg)">
  <!-- svg-source:excalidraw -->
  
  <defs>
    <style class="style-fonts">
      @font-face {
        font-family: "Virgil";
        src: url("https://excalidraw.com/Virgil.woff2");
      }
      @font-face {
        font-family: "Cascadia";
        src: url("https://excalidraw.com/Cascadia.woff2");
      }
    </style>
    
  </defs>
  <rect x="0" y="0" width="1683.9999999999995" height="1726.443363490851" fill="#ffffff"></rect><g stroke-linecap="round" transform="translate(209.6272371659909 10) rotate(0 575.9999999999999 68.68965517241375)"><path d="M32 0 M32 0 C318.51 -1.07, 606.49 -1.51, 1120 0 M32 0 C376.8 2.6, 721.03 2.06, 1120 0 M1120 0 C1143.32 -1.9, 1153.28 9.93, 1152 32 M1120 0 C1141.38 0.5, 1151.6 8.81, 1152 32 M1152 32 C1150.35 59.64, 1151.82 87.93, 1152 105.38 M1152 32 C1151.1 48.83, 1151.05 66.23, 1152 105.38 M1152 105.38 C1151.36 128.05, 1142 137.92, 1120 137.38 M1152 105.38 C1149.82 127.67, 1139.47 136.55, 1120 137.38 M1120 137.38 C868.2 136.13, 614.48 136.93, 32 137.38 M1120 137.38 C731.08 138.28, 342.45 138.54, 32 137.38 M32 137.38 C12.64 139.09, 1.91 125.07, 0 105.38 M32 137.38 C8.57 135.31, -2.06 124.6, 0 105.38 M0 105.38 C-1.54 83.15, -1.43 61.48, 0 32 M0 105.38 C-0.15 80.28, 1.05 56.59, 0 32 M0 32 C1.38 11.03, 9 -1.03, 32 0 M0 32 C-0.98 11.9, 12.3 1.17, 32 0" stroke="#e03131" stroke-width="2" fill="none"></path></g><g transform="translate(585.3513750970253 59.65517241379288) rotate(0 248.56915283203125 22.344827586206904)"><text x="0" y="0" font-family="Virgil, Segoe UI Emoji" font-size="35.751724137931035px" fill="#e03131" text-anchor="start" style="white-space: pre;" direction="ltr" dominant-baseline="text-before-edge">RUBY ON RAILS PROPOSAL</text></g><g stroke-linecap="round" transform="translate(131.62723716599066 226.59523809523807) rotate(0 152.85714285714286 58.571428571428555)"><path d="M29.29 0 M29.29 0 C125.51 0.01, 221.39 1.57, 276.43 0 M29.29 0 C112.66 1.25, 195.05 1.15, 276.43 0 M276.43 0 C297.54 0.5, 304.6 9.75, 305.71 29.29 M276.43 0 C295.13 1.85, 304.04 10.57, 305.71 29.29 M305.71 29.29 C306.92 49.73, 304.04 70.07, 305.71 87.86 M305.71 29.29 C306.02 41.03, 306.63 54.2, 305.71 87.86 M305.71 87.86 C306.54 106.41, 295.1 119.14, 276.43 117.14 M305.71 87.86 C304.51 109.06, 294.64 117.69, 276.43 117.14 M276.43 117.14 C218.86 113.79, 160.46 115.1, 29.29 117.14 M276.43 117.14 C210.62 118.27, 145.87 117.29, 29.29 117.14 M29.29 117.14 C11.67 116.66, 0.54 105.78, 0 87.86 M29.29 117.14 C11.75 118.23, 0.47 106.83, 0 87.86 M0 87.86 C-0.48 71.49, -0.33 58.19, 0 29.29 M0 87.86 C0.61 73.62, -1.29 57.64, 0 29.29 M0 29.29 C-1.13 11.66, 9.66 -1.88, 29.29 0 M0 29.29 C1.26 11.17, 11.04 0.46, 29.29 0" stroke="#1e1e1e" stroke-width="1" fill="none"></path></g><g transform="translate(248.8682377501843 267.66666666666663) rotate(0 35.61614227294923 17.5)"><text x="35.61614227294922" y="0" font-family="Virgil, Segoe UI Emoji" font-size="28px" fill="#1e1e1e" text-anchor="middle" style="white-space: pre;" direction="ltr" dominant-baseline="text-before-edge">Admin</text></g><g stroke-linecap="round" transform="translate(615.9129514517049 222.30952380952374) rotate(0 202.85714285714283 55.71428571428572)"><path d="M27.86 0 M27.86 0 C146.68 -0.48, 267.11 1.45, 377.86 0 M27.86 0 C112.02 1.46, 195.87 1.39, 377.86 0 M377.86 0 C397.97 0.38, 405.33 8.84, 405.71 27.86 M377.86 0 C398.59 1.32, 404.37 7.33, 405.71 27.86 M405.71 27.86 C405.22 50.49, 406.76 69.05, 405.71 83.57 M405.71 27.86 C406.1 43.84, 404.28 58.76, 405.71 83.57 M405.71 83.57 C407.52 100.65, 396.04 109.77, 377.86 111.43 M405.71 83.57 C405.01 101.81, 397.75 110.13, 377.86 111.43 M377.86 111.43 C239.9 110.67, 100.28 109.52, 27.86 111.43 M377.86 111.43 C297.56 111.25, 217.08 111.58, 27.86 111.43 M27.86 111.43 C8 110.12, 1.49 103.83, 0 83.57 M27.86 111.43 C8.85 110.62, 0.03 102.65, 0 83.57 M0 83.57 C1.6 66, -0.58 46.21, 0 27.86 M0 83.57 C0.31 69.22, -1.14 55.28, 0 27.86 M0 27.86 C0.1 10.98, 10.84 -0.23, 27.86 0 M0 27.86 C1.29 7.77, 9.4 -0.5, 27.86 0" stroke="#e03131" stroke-width="1" fill="none"></path></g><g stroke-linecap="round"><g transform="translate(453.0558085945621 273.82578299975114) rotate(0 73.13758378205952 -0.15082844808475215)"><path d="M0.35 -0.37 C24.74 -0.46, 122.8 -0.17, 147.19 -0.04 M-0.92 -1.62 C23.24 -1.57, 121.83 0.75, 146.27 1.32" stroke="#e03131" stroke-width="1" fill="none"></path></g><g transform="translate(453.0558085945621 273.82578299975114) rotate(0 73.13758378205952 -0.15082844808475215)"><path d="M117.23 11.01 C127.83 6.57, 139.19 2.76, 146.53 1.01 M118.13 10.37 C127.64 7.94, 135.35 4.72, 145.73 1.3" stroke="#e03131" stroke-width="1" fill="none"></path></g><g transform="translate(453.0558085945621 273.82578299975114) rotate(0 73.13758378205952 -0.15082844808475215)"><path d="M117.7 -9.51 C128.21 -6.3, 139.39 -2.47, 146.53 1.01 M118.6 -10.14 C128.06 -6, 135.62 -2.65, 145.73 1.3" stroke="#e03131" stroke-width="1" fill="none"></path></g></g><mask></mask><g transform="translate(767.3415228802762 260.1666666666666) rotate(0 45.94818878173828 17.5)"><text x="0" y="0" font-family="Virgil, Segoe UI Emoji" font-size="28px" fill="#e03131" text-anchor="start" style="white-space: pre;" direction="ltr" dominant-baseline="text-before-edge">Cursos</text></g><g stroke-linecap="round" transform="translate(104.48438002313344 415.1666666666665) rotate(0 167.85714285714283 72.85714285714283)"><path d="M32 0 M32 0 C129.22 0.21, 224.85 0.45, 303.71 0 M32 0 C98.56 -0.07, 165.07 0.05, 303.71 0 M303.71 0 C325.26 -1.27, 334.16 9.56, 335.71 32 M303.71 0 C326.65 -1.17, 333.44 9.37, 335.71 32 M335.71 32 C334.14 50.81, 337.05 72.32, 335.71 113.71 M335.71 32 C337.29 58.93, 336.95 84.71, 335.71 113.71 M335.71 113.71 C336.62 134.57, 324.71 147.55, 303.71 145.71 M335.71 113.71 C336.29 135.09, 324.55 143.89, 303.71 145.71 M303.71 145.71 C208.43 144.44, 110.41 145.5, 32 145.71 M303.71 145.71 C247.94 147.48, 192.92 146.53, 32 145.71 M32 145.71 C12.59 147.02, 0.57 134.7, 0 113.71 M32 145.71 C9.28 145.98, -0.72 134.26, 0 113.71 M0 113.71 C-0.59 83.72, -2.26 50.96, 0 32 M0 113.71 C0.44 95.09, -0.24 75.8, 0 32 M0 32 C-0.75 10.56, 12.43 0.36, 32 0 M0 32 C1.53 11.79, 11.55 -0.5, 32 0" stroke="#1971c2" stroke-width="1" fill="none"></path></g><g transform="translate(204.60924596377237 470.5238095238093) rotate(0 67.7322769165039 17.5)"><text x="67.7322769165039" y="0" font-family="Virgil, Segoe UI Emoji" font-size="28px" fill="#1971c2" text-anchor="middle" style="white-space: pre;" direction="ltr" dominant-baseline="text-before-edge">Companhia</text></g><g stroke-linecap="round" transform="translate(95.91295145170494 620.8809523809522) rotate(0 177.85714285714286 62.85714285714283)"><path d="M31.43 0 M31.43 0 C140.67 -1.74, 250.12 -0.12, 324.29 0 M31.43 0 C144.82 0.61, 258.39 0.45, 324.29 0 M324.29 0 C343.49 -0.59, 354.3 11.07, 355.71 31.43 M324.29 0 C344.77 -1.91, 356.64 9.21, 355.71 31.43 M355.71 31.43 C353.99 53.02, 353.41 73.92, 355.71 94.29 M355.71 31.43 C355.36 45.34, 355.68 60.16, 355.71 94.29 M355.71 94.29 C357.28 114.64, 347.1 125.14, 324.29 125.71 M355.71 94.29 C354.05 117.45, 343.79 124.76, 324.29 125.71 M324.29 125.71 C254.65 127.84, 185.9 127.62, 31.43 125.71 M324.29 125.71 C263.15 124.16, 202.42 125.36, 31.43 125.71 M31.43 125.71 C9.32 124.94, 1.08 114.01, 0 94.29 M31.43 125.71 C10.14 124.53, 0.93 117.19, 0 94.29 M0 94.29 C1.16 73.95, 1.54 57.72, 0 31.43 M0 94.29 C-0.09 81, -0.03 65.82, 0 31.43 M0 31.43 C1.76 11.26, 12.4 1.39, 31.43 0 M0 31.43 C-1.67 8.48, 8.36 0.53, 31.43 0" stroke="#1971c2" stroke-width="1" fill="none"></path></g><g transform="translate(179.77370301246108 666.2380952380951) rotate(0 93.9963912963867 17.5)"><text x="93.99639129638672" y="0" font-family="Virgil, Segoe UI Emoji" font-size="28px" fill="#1971c2" text-anchor="middle" style="white-space: pre;" direction="ltr" dominant-baseline="text-before-edge">Trabajadores</text></g><g stroke-linecap="round"><g transform="translate(215.91295145170483 566.5952380952378) rotate(0 0.11094668369963756 21.96019643655842)"><path d="M-0.77 0.86 C-0.97 7.96, -0.13 35.4, -0.25 42.37 M1.02 0.27 C0.69 7.55, -0.02 36.38, -0.58 43.65" stroke="#1971c2" stroke-width="1" fill="none"></path></g><g transform="translate(215.91295145170483 566.5952380952378) rotate(0 0.11094668369963756 21.96019643655842)"><path d="M-5.52 25.15 C-5.4 30.8, -2.46 37.74, -0.97 45 M-6.66 22.86 C-5.2 29.47, -3.09 32.8, -0.39 43.61" stroke="#1971c2" stroke-width="1" fill="none"></path></g><g transform="translate(215.91295145170483 566.5952380952378) rotate(0 0.11094668369963756 21.96019643655842)"><path d="M9.13 25.84 C3.73 31.14, 1.15 37.81, -0.97 45 M7.99 23.55 C5.71 29.86, 4.07 33.02, -0.39 43.61" stroke="#1971c2" stroke-width="1" fill="none"></path></g></g><mask></mask><g stroke-linecap="round"><g transform="translate(293.055808594562 609.4523809523807) rotate(0 2.1161111604781695 -18.606493744534873)"><path d="M-0.37 -1.13 C-0.03 -7.68, 1.62 -31.91, 2.22 -38.1 M1.63 0.89 C2.35 -5.03, 4.42 -30.65, 4.6 -37.07" stroke="#1971c2" stroke-width="1" fill="none"></path></g><g transform="translate(293.055808594562 609.4523809523807) rotate(0 2.1161111604781695 -18.606493744534873)"><path d="M8.18 -20.21 C6.58 -24.25, 4.56 -31.71, 6.01 -37.23 M9.52 -19.53 C7.5 -23.21, 6.86 -29.1, 4.95 -36.18" stroke="#1971c2" stroke-width="1" fill="none"></path></g><g transform="translate(293.055808594562 609.4523809523807) rotate(0 2.1161111604781695 -18.606493744534873)"><path d="M-4.54 -20.96 C-2.11 -24.73, -0.1 -31.94, 6.01 -37.23 M-3.2 -20.28 C-1.78 -23.72, 1.02 -29.41, 4.95 -36.18" stroke="#1971c2" stroke-width="1" fill="none"></path></g></g><mask></mask><g stroke-linecap="round"><g transform="translate(455.9129514517049 466.59523809523785) rotate(0 131.24213696180703 -58.13969410611452)"><path d="M-1.04 -1.13 C43.06 -20.55, 219.4 -97.82, 263.52 -117.17 M0.62 0.89 C44.7 -18.26, 219.13 -96.17, 262.92 -115.64" stroke="#e03131" stroke-width="1" fill="none"></path></g><g transform="translate(455.9129514517049 466.59523809523785) rotate(0 131.24213696180703 -58.13969410611452)"><path d="M239.46 -93.69 C246.04 -97.66, 250.57 -104.18, 261.43 -116.91 M242.11 -95.73 C249.17 -100.65, 256.18 -107.52, 262.87 -114.99" stroke="#e03131" stroke-width="1" fill="none"></path></g><g transform="translate(455.9129514517049 466.59523809523785) rotate(0 131.24213696180703 -58.13969410611452)"><path d="M231.11 -112.43 C239.37 -112.33, 245.69 -114.83, 261.43 -116.91 M233.76 -114.47 C243.47 -113.22, 253.24 -113.92, 262.87 -114.99" stroke="#e03131" stroke-width="1" fill="none"></path></g></g><mask></mask><g stroke-linecap="round" transform="translate(611.6272371659904 606.5952380952378) rotate(0 219.99999999999994 56.428571428571445)"><path d="M28.21 0 M28.21 0 C138.53 1.11, 249.16 2.49, 411.79 0 M28.21 0 C161.98 -0.42, 294.61 -0.4, 411.79 0 M411.79 0 C429.75 1.45, 440.41 9.44, 440 28.21 M411.79 0 C430.36 -2.05, 440.48 11.53, 440 28.21 M440 28.21 C440.91 41.22, 441.87 55.71, 440 84.64 M440 28.21 C440.5 44.03, 440.67 60.46, 440 84.64 M440 84.64 C441.58 103.54, 431.3 112.88, 411.79 112.86 M440 84.64 C440.07 101.98, 428.44 112.39, 411.79 112.86 M411.79 112.86 C298.52 114.39, 187.77 114.65, 28.21 112.86 M411.79 112.86 C304.24 111.33, 196.6 110.29, 28.21 112.86 M28.21 112.86 C10.53 111.92, -0.73 101.6, 0 84.64 M28.21 112.86 C9.96 114.49, 0.16 104.94, 0 84.64 M0 84.64 C0.59 70.82, 0.73 59.15, 0 28.21 M0 84.64 C0 72.17, -0.56 61.26, 0 28.21 M0 28.21 C-0.9 7.41, 10.51 -1.97, 28.21 0 M0 28.21 C1.02 11.42, 7.45 0.03, 28.21 0" stroke="#1e1e1e" stroke-width="1" fill="none"></path></g><g transform="translate(751.6169069657951 645.5238095238093) rotate(0 80.01033020019531 17.5)"><text x="80.01033020019531" y="0" font-family="Virgil, Segoe UI Emoji" font-size="28px" fill="#1e1e1e" text-anchor="middle" style="white-space: pre;" direction="ltr" dominant-baseline="text-before-edge">Facturacion</text></g><g stroke-linecap="round"><g transform="translate(454.4843800231335 553.3331593361954) rotate(0 76.2204456108172 20.600243478114578)"><path d="M0.67 -1.18 C26.24 6.08, 127.77 35.3, 152.88 42.38 M-0.44 0.81 C25.06 7.86, 126.53 33.84, 152.22 40.82" stroke="#1e1e1e" stroke-width="1" fill="none"></path></g><g transform="translate(454.4843800231335 553.3331593361954) rotate(0 76.2204456108172 20.600243478114578)"><path d="M120.37 44.46 C131.74 41, 137.62 41.07, 153.73 39.68 M121.48 44.33 C133.56 41.48, 145.8 41.46, 151.74 41.41" stroke="#1e1e1e" stroke-width="1" fill="none"></path></g><g transform="translate(454.4843800231335 553.3331593361954) rotate(0 76.2204456108172 20.600243478114578)"><path d="M125.59 24.61 C135.43 26.24, 139.98 31.37, 153.73 39.68 M126.7 24.49 C136.9 29.32, 147.14 36.94, 151.74 41.41" stroke="#1e1e1e" stroke-width="1" fill="none"></path></g></g><mask></mask><g stroke-linecap="round" transform="translate(1128.7700943088475 392.3095238095236) rotate(0 197.1428571428571 60)"><path d="M30 0 M30 0 C107.74 1.1, 186.72 2.6, 364.29 0 M30 0 C104.4 -0.91, 178.09 -0.75, 364.29 0 M364.29 0 C382.66 -0.07, 395.72 9.43, 394.29 30 M364.29 0 C386.25 -1.39, 394.46 10.18, 394.29 30 M394.29 30 C395.02 49.61, 391.76 70.03, 394.29 90 M394.29 30 C393.58 42.9, 394.72 58.11, 394.29 90 M394.29 90 C392.81 109.57, 383.21 118.2, 364.29 120 M394.29 90 C395.45 109.45, 386.05 122.06, 364.29 120 M364.29 120 C281.14 119, 197.12 119.53, 30 120 M364.29 120 C254.15 122.49, 143.03 121.83, 30 120 M30 120 C10.1 119.71, -0.96 108.55, 0 90 M30 120 C9.62 119.3, -2.21 107.72, 0 90 M0 90 C0.42 70.16, -1.93 46.91, 0 30 M0 90 C1.3 69.75, 0.85 50.66, 0 30 M0 30 C1.51 8.64, 10.8 0.87, 30 0 M0 30 C-1.75 8.46, 9.47 0.91, 30 0" stroke="#e03131" stroke-width="1" fill="none"></path></g><g transform="translate(1260.9526777090289 434.8095238095236) rotate(0 64.96027374267578 17.5)"><text x="64.96027374267578" y="0" font-family="Virgil, Segoe UI Emoji" font-size="28px" fill="#e03131" text-anchor="middle" style="white-space: pre;" direction="ltr" dominant-baseline="text-before-edge">Examenes</text></g><g stroke-linecap="round"><g transform="translate(918.7700943088477 348.0238095238093) rotate(0 96.32873464669905 34.984416521336584)"><path d="M0.41 1.09 C32.72 12.59, 161.49 58.17, 193.49 69.35 M-0.83 0.62 C31.41 11.75, 160.84 56.19, 192.87 67.64" stroke="#e03131" stroke-width="1" fill="none"></path></g><g transform="translate(918.7700943088477 348.0238095238093) rotate(0 96.32873464669905 34.984416521336584)"><path d="M164.69 69.08 C172.25 67.02, 178.38 67.81, 192.58 66.68 M161.91 67.04 C170.13 68.76, 177.11 68.37, 193.24 66.89" stroke="#e03131" stroke-width="1" fill="none"></path></g><g transform="translate(918.7700943088477 348.0238095238093) rotate(0 96.32873464669905 34.984416521336584)"><path d="M171.46 49.71 C177.26 52.89, 181.56 58.9, 192.58 66.68 M168.68 47.67 C175.33 53.77, 180.76 57.8, 193.24 66.89" stroke="#e03131" stroke-width="1" fill="none"></path></g></g><mask></mask><g mask="url(#mask-dJCCvjQo_cIeYK2xYiC9A)" stroke-linecap="round"><g transform="translate(454.48438002313344 506.59523809523785) rotate(0 327.090109293216 -8.9883770822467)"><path d="M-1.18 0.58 C108.11 -2.14, 546.01 -13.63, 655.36 -16.68 M0.41 -0.16 C109.54 -3.21, 544.73 -15.8, 654.22 -18.56" stroke="#e03131" stroke-width="1" fill="none"></path></g><g transform="translate(454.48438002313344 506.59523809523785) rotate(0 327.090109293216 -8.9883770822467)"><path d="M627.29 -8.13 C634.65 -11.63, 640.41 -13.67, 656.17 -16.72 M625.94 -8.36 C636.47 -12.52, 648.01 -15.82, 653.8 -19.55" stroke="#e03131" stroke-width="1" fill="none"></path></g><g transform="translate(454.48438002313344 506.59523809523785) rotate(0 327.090109293216 -8.9883770822467)"><path d="M626.73 -28.64 C634.17 -26.61, 640.09 -23.12, 656.17 -16.72 M625.38 -28.87 C636.32 -24.99, 648.07 -20.25, 653.8 -19.55" stroke="#e03131" stroke-width="1" fill="none"></path></g></g><mask id="mask-dJCCvjQo_cIeYK2xYiC9A"><rect x="0" y="0" fill="#fff" width="1210.198665737419" height="623.738095238095"></rect><rect x="676.4170767743193" y="480.5238095238093" fill="#000" width="211.84889221191406" height="35" opacity="1"></rect></mask><g transform="translate(676.4170767743192 480.5238095238092) rotate(0 105.15741254203027 17.083051489181855)"><text x="105.92444610595703" y="0" font-family="Virgil, Segoe UI Emoji" font-size="28px" fill="#e03131" text-anchor="middle" style="white-space: pre;" direction="ltr" dominant-baseline="text-before-edge">Tiene acceso a</text></g><g mask="url(#mask-IES3u60dIOxxYD_cMEF0I)" stroke-linecap="round"><g transform="translate(253.055808594562 759.4523809523807) rotate(0 636.9116405326711 -42.071573397725444)"><path d="M0.56 0.04 C21.42 19.51, -70.85 98.04, 125.13 116.22 C321.1 134.41, 990.41 166.13, 1176.42 109.14 C1362.44 52.15, 1230.54 -170.1, 1241.21 -225.72 M-0.61 -0.98 C20.18 18.66, -71.97 99.27, 124.62 117.28 C321.21 135.29, 992.82 164.08, 1178.94 107.09 C1365.06 50.11, 1230.81 -168.9, 1241.35 -224.62" stroke="#e03131" stroke-width="1" fill="none"></path></g><g transform="translate(253.055808594562 759.4523809523807) rotate(0 636.9116405326711 -42.071573397725444)"><path d="M1257 -197.58 C1250.93 -207.67, 1248.81 -214.38, 1241.33 -226.2 M1256.54 -199.52 C1251.23 -208.92, 1243.91 -219.67, 1241.66 -223.92" stroke="#e03131" stroke-width="1" fill="none"></path></g><g transform="translate(253.055808594562 759.4523809523807) rotate(0 636.9116405326711 -42.071573397725444)"><path d="M1236.87 -193.57 C1236.75 -204.93, 1240.57 -212.83, 1241.33 -226.2 M1236.41 -195.51 C1239.08 -206.57, 1239.7 -218.91, 1241.66 -223.92" stroke="#e03131" stroke-width="1" fill="none"></path></g></g><mask id="mask-IES3u60dIOxxYD_cMEF0I"><rect x="0" y="0" fill="#fff" width="1594.4843800231333" height="1202.3095238095236"></rect><rect x="753.3492403539944" y="883.0073072238771" fill="#000" width="336.0293884277344" height="35" opacity="1"></rect></mask><g transform="translate(753.3492403539944 883.0073072238773) rotate(0 136.61820877323856 -165.62649966922191)"><text x="168.0146942138672" y="0" font-family="Virgil, Segoe UI Emoji" font-size="28px" fill="#e03131" text-anchor="middle" style="white-space: pre;" direction="ltr" dominant-baseline="text-before-edge">Tiene sus resultados en</text></g><g stroke-linecap="round"><g transform="translate(67.05580859456211 959.1666666666662) rotate(0 764.9441914054378 0.028145916201196997)"><path d="M0.51 0.6 C255.5 0.92, 1275.74 0.78, 1530.57 0.86 M-0.68 -0.14 C254.15 -0.05, 1275.06 -0.72, 1529.92 -0.81" stroke="#1e1e1e" stroke-width="4" fill="none"></path></g></g><mask></mask><g stroke-linecap="round" transform="translate(32.85714285714289 1021.300506347994) rotate(0 311.99999999999994 97)"><path d="M32 0 M32 0 C173.72 -1.04, 315.95 0.19, 592 0 M32 0 C235.82 -2.5, 439.32 -2.44, 592 0 M592 0 C612.2 -1.05, 623.47 11.48, 624 32 M592 0 C614.52 0.49, 625.75 9.32, 624 32 M624 32 C622.79 79.06, 625.17 123.54, 624 162 M624 32 C625.08 73.04, 625.57 113.74, 624 162 M624 162 C622.53 184.56, 615.08 195.39, 592 194 M624 162 C625.82 183.66, 611.22 192.47, 592 194 M592 194 C407.28 194.3, 223.02 195.36, 32 194 M592 194 C455.56 193.75, 319.35 193.86, 32 194 M32 194 C10.93 192.57, 0.87 184.35, 0 162 M32 194 C9.96 193.4, 1.94 183.25, 0 162 M0 162 C-0.96 128.54, 0.81 91.93, 0 32 M0 162 C-0.32 125.08, 0.29 87.83, 0 32 M0 32 C0.52 8.75, 11.92 -0.53, 32 0 M0 32 C0.02 11.05, 12.93 -0.88, 32 0" stroke="#1e1e1e" stroke-width="4" fill="none"></path></g><g transform="translate(79.71428571428572 1079.0147920622794) rotate(0 64.06426239013672 52.5)"><text x="0" y="0" font-family="Virgil, Segoe UI Emoji" font-size="28px" fill="#1e1e1e" text-anchor="start" style="white-space: pre;" direction="ltr" dominant-baseline="text-before-edge">Correo</text><text x="0" y="35" font-family="Virgil, Segoe UI Emoji" font-size="28px" fill="#1e1e1e" text-anchor="start" style="white-space: pre;" direction="ltr" dominant-baseline="text-before-edge">Id</text><text x="0" y="70" font-family="Virgil, Segoe UI Emoji" font-size="28px" fill="#1e1e1e" text-anchor="start" style="white-space: pre;" direction="ltr" dominant-baseline="text-before-edge">Password</text></g><g transform="translate(311.142857142857 1052.3005063479936) rotate(0 45.792022705078125 22.5)"><text x="0" y="0" font-family="Virgil, Segoe UI Emoji" font-size="36px" fill="#1e1e1e" text-anchor="start" style="white-space: pre;" direction="ltr" dominant-baseline="text-before-edge">Admin</text></g><g stroke-linecap="round" transform="translate(783.9999999999997 1009.0147920622795) rotate(0 437.99999999999994 113.42857142857144)"><path d="M32 0 M32 0 C310.57 -2.94, 589.21 -2.85, 844 0 M32 0 C273.8 -3.33, 516.03 -3.56, 844 0 M844 0 C864.57 1.88, 876.1 9.34, 876 32 M844 0 C865.41 1.07, 873.76 11.14, 876 32 M876 32 C872.92 82.38, 873.05 130.91, 876 194.86 M876 32 C874.55 93.17, 875.23 154.43, 876 194.86 M876 194.86 C876.66 217.81, 864.11 227.75, 844 226.86 M876 194.86 C874.3 214.32, 866.61 228.14, 844 226.86 M844 226.86 C549.47 226.81, 255.74 227.48, 32 226.86 M844 226.86 C541.12 228.67, 237.86 228.35, 32 226.86 M32 226.86 C12.18 226.37, 0.81 218.09, 0 194.86 M32 226.86 C9.24 228.31, -1.92 215.61, 0 194.86 M0 194.86 C1.58 142.59, 0.02 90.97, 0 32 M0 194.86 C-1.98 137.67, -1.07 79.74, 0 32 M0 32 C-1.52 11.79, 12.28 -0.65, 32 0 M0 32 C-1.42 11.26, 10.76 -1.24, 32 0" stroke="#e03131" stroke-width="4" fill="none"></path></g><g transform="translate(1137.9999999999995 1029.0147920622794) rotate(0 59.076019287109375 22.5)"><text x="0" y="0" font-family="Virgil, Segoe UI Emoji" font-size="36px" fill="#e03131" text-anchor="start" style="white-space: pre;" direction="ltr" dominant-baseline="text-before-edge">Cursos</text></g><g transform="translate(857.4285714285714 1079.300506347994) rotate(0 339.8396301269532 75)"><text x="0" y="0" font-family="Virgil, Segoe UI Emoji" font-size="20px" fill="#e03131" text-anchor="start" style="white-space: pre;" direction="ltr" dominant-baseline="text-before-edge">id</text><text x="0" y="25" font-family="Virgil, Segoe UI Emoji" font-size="20px" fill="#e03131" text-anchor="start" style="white-space: pre;" direction="ltr" dominant-baseline="text-before-edge">id_autorizados=[]</text><text x="0" y="50" font-family="Virgil, Segoe UI Emoji" font-size="20px" fill="#e03131" text-anchor="start" style="white-space: pre;" direction="ltr" dominant-baseline="text-before-edge">contenido</text><text x="0" y="75" font-family="Virgil, Segoe UI Emoji" font-size="20px" fill="#e03131" text-anchor="start" style="white-space: pre;" direction="ltr" dominant-baseline="text-before-edge">nombre</text><text x="0" y="100" font-family="Virgil, Segoe UI Emoji" font-size="20px" fill="#e03131" text-anchor="start" style="white-space: pre;" direction="ltr" dominant-baseline="text-before-edge">tipo= 'seguridad_industrial || economia || procedimientos etc etc etc...</text><text x="0" y="125" font-family="Virgil, Segoe UI Emoji" font-size="20px" fill="#e03131" text-anchor="start" style="white-space: pre;" direction="ltr" dominant-baseline="text-before-edge"></text></g><g stroke-linecap="round" transform="translate(32 1264.443363490851) rotate(0 315.99999999999994 81)"><path d="M32 0 M32 0 C208 -0.67, 381.99 0.61, 600 0 M32 0 C156.94 -1.19, 281.82 -1.49, 600 0 M600 0 C623.23 -1.78, 632.24 12.6, 632 32 M600 0 C621.13 -1.2, 632.9 10.37, 632 32 M632 32 C632.55 60.87, 633.59 87.64, 632 130 M632 32 C630.45 64.24, 631.35 98.71, 632 130 M632 130 C630.17 152.19, 620.79 161.28, 600 162 M632 130 C630.6 152.91, 623.5 163.01, 600 162 M600 162 C435.37 163.08, 272.03 162.15, 32 162 M600 162 C474.68 160.36, 349.39 160.41, 32 162 M32 162 C8.81 161.21, 0.79 152.86, 0 130 M32 162 C10.33 161.3, -0.2 152.83, 0 130 M0 130 C-2.19 92.8, -0.67 53.39, 0 32 M0 130 C-0.29 107.81, 0.08 86.53, 0 32 M0 32 C1.91 11.7, 10.87 0.19, 32 0 M0 32 C1.91 10.79, 12.89 1.67, 32 0" stroke="#1e1e1e" stroke-width="4" fill="none"></path></g><g transform="translate(281.9999999999999 1278.443363490851) rotate(0 71.51403045654297 22.5)"><text x="0" y="0" font-family="Virgil, Segoe UI Emoji" font-size="36px" fill="#1e1e1e" text-anchor="start" style="white-space: pre;" direction="ltr" dominant-baseline="text-before-edge">Factura</text></g><g transform="translate(86 1302.443363490851) rotate(0 55.409942626953125 62.5)"><text x="0" y="0" font-family="Virgil, Segoe UI Emoji" font-size="20px" fill="#1e1e1e" text-anchor="start" style="white-space: pre;" direction="ltr" dominant-baseline="text-before-edge">Id</text><text x="0" y="25" font-family="Virgil, Segoe UI Emoji" font-size="20px" fill="#1e1e1e" text-anchor="start" style="white-space: pre;" direction="ltr" dominant-baseline="text-before-edge">Company_id</text><text x="0" y="50" font-family="Virgil, Segoe UI Emoji" font-size="20px" fill="#1e1e1e" text-anchor="start" style="white-space: pre;" direction="ltr" dominant-baseline="text-before-edge">amount</text><text x="0" y="75" font-family="Virgil, Segoe UI Emoji" font-size="20px" fill="#1e1e1e" text-anchor="start" style="white-space: pre;" direction="ltr" dominant-baseline="text-before-edge">courses</text><text x="0" y="100" font-family="Virgil, Segoe UI Emoji" font-size="20px" fill="#1e1e1e" text-anchor="start" style="white-space: pre;" direction="ltr" dominant-baseline="text-before-edge"></text></g><g stroke-linecap="round" transform="translate(803.9999999999999 1262.443363490851) rotate(0 422.99999999999983 108)"><path d="M32 0 M32 0 C266.36 -1.4, 500.52 -1.89, 814 0 M32 0 C201.5 -1.52, 371.42 -1.36, 814 0 M814 0 C836.24 0.27, 844.23 8.74, 846 32 M814 0 C833.41 -0.72, 846.86 10.08, 846 32 M846 32 C847.89 86.61, 847.57 139.84, 846 184 M846 32 C846.49 70.59, 845.89 107.31, 846 184 M846 184 C847.57 206.53, 834.2 215.58, 814 216 M846 184 C847.78 206.23, 836.76 217.03, 814 216 M814 216 C643.74 213.21, 472.61 213.26, 32 216 M814 216 C555.7 219.29, 297.51 219.18, 32 216 M32 216 C11.35 214.4, 1.63 204.87, 0 184 M32 216 C10.1 216.94, -0.44 203.73, 0 184 M0 184 C-0.44 148.62, 2.49 110.69, 0 32 M0 184 C1.03 150.12, -0.53 117.08, 0 32 M0 32 C0.74 12.62, 10.08 1.29, 32 0 M0 32 C-1.5 10.58, 11.95 -0.12, 32 0" stroke="#e03131" stroke-width="4" fill="none"></path></g><g transform="translate(1149.9999999999995 1276.443363490851) rotate(0 63.9000244140625 22.5)"><text x="0" y="0" font-family="Virgil, Segoe UI Emoji" font-size="36px" fill="#e03131" text-anchor="start" style="white-space: pre;" direction="ltr" dominant-baseline="text-before-edge">Examen</text></g><g transform="translate(877.9999999999999 1298.443363490851) rotate(0 169.7197875976563 75)"><text x="0" y="0" font-family="Virgil, Segoe UI Emoji" font-size="20px" fill="#e03131" text-anchor="start" style="white-space: pre;" direction="ltr" dominant-baseline="text-before-edge">id</text><text x="0" y="25" font-family="Virgil, Segoe UI Emoji" font-size="20px" fill="#e03131" text-anchor="start" style="white-space: pre;" direction="ltr" dominant-baseline="text-before-edge">trabajador_id</text><text x="0" y="50" font-family="Virgil, Segoe UI Emoji" font-size="20px" fill="#e03131" text-anchor="start" style="white-space: pre;" direction="ltr" dominant-baseline="text-before-edge">company_id</text><text x="0" y="75" font-family="Virgil, Segoe UI Emoji" font-size="20px" fill="#e03131" text-anchor="start" style="white-space: pre;" direction="ltr" dominant-baseline="text-before-edge">aprobado= boolean (true or false)</text><text x="0" y="100" font-family="Virgil, Segoe UI Emoji" font-size="20px" fill="#e03131" text-anchor="start" style="white-space: pre;" direction="ltr" dominant-baseline="text-before-edge">numero_de_repeticiones:</text><text x="0" y="125" font-family="Virgil, Segoe UI Emoji" font-size="20px" fill="#e03131" text-anchor="start" style="white-space: pre;" direction="ltr" dominant-baseline="text-before-edge">repetible?</text></g><g stroke-linecap="round" transform="translate(10 1504.4433634908514) rotate(0 335.99999999999994 105.99999999999989)"><path d="M32 0 M32 0 C170.9 -0.05, 309.72 -1.41, 640 0 M32 0 C251.52 -1.11, 470.42 -1.07, 640 0 M640 0 C663.02 0.96, 670.01 8.87, 672 32 M640 0 C662.88 -2.28, 672.07 9.31, 672 32 M672 32 C671.67 73.52, 671 111.78, 672 180 M672 32 C673.04 70.22, 672.55 108.89, 672 180 M672 180 C672.13 199.63, 662.28 212.63, 640 212 M672 180 C671.36 200.76, 663.1 213.58, 640 212 M640 212 C446.16 213.69, 252.62 212.95, 32 212 M640 212 C488.04 212.74, 335.41 212.49, 32 212 M32 212 C12.63 213.64, -0.44 201.77, 0 180 M32 212 C10.41 212, 1.74 199.49, 0 180 M0 180 C-0.42 143.02, -2.32 104.12, 0 32 M0 180 C0.05 145.85, 0.42 109.51, 0 32 M0 32 C-1.7 11.11, 11.65 1.91, 32 0 M0 32 C1.49 10.49, 11.32 1.68, 32 0" stroke="#1971c2" stroke-width="4" fill="none"></path></g><g transform="translate(277.9999999999999 1518.4433634908514) rotate(0 87.08403015136719 22.5)"><text x="0" y="0" font-family="Virgil, Segoe UI Emoji" font-size="36px" fill="#1971c2" text-anchor="start" style="white-space: pre;" direction="ltr" dominant-baseline="text-before-edge">Companhia</text></g><g transform="translate(62 1536.4433634908514) rotate(0 101.12989044189453 75)"><text x="0" y="0" font-family="Virgil, Segoe UI Emoji" font-size="20px" fill="#1971c2" text-anchor="start" style="white-space: pre;" direction="ltr" dominant-baseline="text-before-edge">id</text><text x="0" y="25" font-family="Virgil, Segoe UI Emoji" font-size="20px" fill="#1971c2" text-anchor="start" style="white-space: pre;" direction="ltr" dominant-baseline="text-before-edge">Name</text><text x="0" y="50" font-family="Virgil, Segoe UI Emoji" font-size="20px" fill="#1971c2" text-anchor="start" style="white-space: pre;" direction="ltr" dominant-baseline="text-before-edge">email</text><text x="0" y="75" font-family="Virgil, Segoe UI Emoji" font-size="20px" fill="#1971c2" text-anchor="start" style="white-space: pre;" direction="ltr" dominant-baseline="text-before-edge">password</text><text x="0" y="100" font-family="Virgil, Segoe UI Emoji" font-size="20px" fill="#1971c2" text-anchor="start" style="white-space: pre;" direction="ltr" dominant-baseline="text-before-edge">address</text><text x="0" y="125" font-family="Virgil, Segoe UI Emoji" font-size="20px" fill="#1971c2" text-anchor="start" style="white-space: pre;" direction="ltr" dominant-baseline="text-before-edge">colours...(1, 2 and 3)</text></g><g stroke-linecap="round" transform="translate(811.9999999999999 1512.4433634908514) rotate(0 430.99999999999983 97.99999999999989)"><path d="M32 0 M32 0 C295.17 -1.91, 559.66 -2.42, 830 0 M32 0 C298.03 -1.21, 563.94 -1.08, 830 0 M830 0 C850.76 1.25, 863.33 11.61, 862 32 M830 0 C850.14 1.99, 861.27 10.15, 862 32 M862 32 C861.37 79.01, 864.71 126.42, 862 164 M862 32 C863.14 78.52, 862.96 124.15, 862 164 M862 164 C863.36 186.11, 850.89 197.76, 830 196 M862 164 C864.15 185.49, 853.36 197.18, 830 196 M830 196 C647.77 193.68, 467.23 193.61, 32 196 M830 196 C557.26 197.4, 284.94 197.38, 32 196 M32 196 C10.24 194.81, 1.43 185.4, 0 164 M32 196 C10.29 197.93, 1.91 187.02, 0 164 M0 164 C0.19 118.01, -1.91 74.16, 0 32 M0 164 C0.43 135.22, 0.76 108.15, 0 32 M0 32 C0.39 11.87, 9.81 0.69, 32 0 M0 32 C-1.98 9.87, 11.18 1.35, 32 0" stroke="#1971c2" stroke-width="4" fill="none"></path></g><g transform="translate(1129.9999999999995 1524.443363490851) rotate(0 120.85204315185547 22.5)"><text x="0" y="0" font-family="Virgil, Segoe UI Emoji" font-size="36px" fill="#1971c2" text-anchor="start" style="white-space: pre;" direction="ltr" dominant-baseline="text-before-edge">Trabajadores</text></g><g transform="translate(855.9999999999999 1566.443363490851) rotate(0 53.98994445800781 62.5)"><text x="0" y="0" font-family="Virgil, Segoe UI Emoji" font-size="20px" fill="#1971c2" text-anchor="start" style="white-space: pre;" direction="ltr" dominant-baseline="text-before-edge">id</text><text x="0" y="25" font-family="Virgil, Segoe UI Emoji" font-size="20px" fill="#1971c2" text-anchor="start" style="white-space: pre;" direction="ltr" dominant-baseline="text-before-edge">company_id</text><text x="0" y="50" font-family="Virgil, Segoe UI Emoji" font-size="20px" fill="#1971c2" text-anchor="start" style="white-space: pre;" direction="ltr" dominant-baseline="text-before-edge">email</text><text x="0" y="75" font-family="Virgil, Segoe UI Emoji" font-size="20px" fill="#1971c2" text-anchor="start" style="white-space: pre;" direction="ltr" dominant-baseline="text-before-edge">password</text><text x="0" y="100" font-family="Virgil, Segoe UI Emoji" font-size="20px" fill="#1971c2" text-anchor="start" style="white-space: pre;" direction="ltr" dominant-baseline="text-before-edge"></text></g></svg>